<svg xmlns="http://www.w3.org/2000/svg" xmlns:xlink="http://www.w3.org/1999/xlink" version="1.1" x="0px" y="0px" viewBox="0 0 100 100" enable-background="new 0 0 100 100" xml:space="preserve"><g><g><g><path fill="none" d="M15.143,5.714c24.047,0,48.095,0,72.142,0c0,30.238,0,60.476,0,90.713c-24.047,0-48.095,0-72.142,0     C15.143,66.19,15.143,35.952,15.143,5.714z M15.796,50.326c0,11.897,0.138,23.796-0.065,35.69     c-0.087,5.091,4.071,9.072,8.871,9.033c17.725-0.144,35.453-0.146,53.179,0.003c4.851,0.041,9.296-3.961,8.851-8.999     c-0.052-0.591-0.007-1.189-0.007-1.785c0-22.485,0-44.97-0.001-67.456c0-0.951-0.03-1.903-0.012-2.855     c0.038-1.896-0.755-3.419-1.973-4.819c-1.871-2.151-4.207-2.795-7-2.785C60.032,6.419,42.425,6.387,24.817,6.387     c-0.357,0-0.715,0.021-1.071,0.001c-2.312-0.129-4.099,0.875-5.693,2.463c-1.726,1.719-2.292,3.75-2.28,6.14     C15.827,26.769,15.797,38.547,15.796,50.326z"></path><path fill-rule="evenodd" clip-rule="evenodd" d="M15.797,50.326c0-11.778,0.03-23.557-0.024-35.334     c-0.011-2.39,0.555-4.42,2.28-6.14c1.595-1.589,3.382-2.593,5.693-2.463c0.356,0.02,0.714-0.001,1.071-0.001     c17.607,0,35.215,0.032,52.822-0.034c2.793-0.011,5.129,0.634,7,2.785c1.218,1.4,2.011,2.923,1.973,4.819     c-0.019,0.952,0.012,1.904,0.012,2.855c0.001,22.486,0.001,44.97,0.001,67.456c0,0.596-0.045,1.194,0.007,1.785     c0.445,5.038-4,9.04-8.851,8.999c-17.726-0.149-35.454-0.146-53.179-0.003c-4.8,0.039-8.958-3.942-8.871-9.033     C15.935,74.122,15.796,62.223,15.797,50.326z M80.387,92.078c2.354-1.687,4.046-3.593,4.04-6.731     c-0.046-23.081-0.049-46.162-0.004-69.243c0.009-4.339-3.148-7.541-7.652-7.522C59.758,8.653,42.744,8.67,25.731,8.57     c-4.557-0.027-7.777,3.332-7.757,7.81c0.1,22.843,0.042,45.686,0.059,68.529c0,0.938,0.033,1.924,0.311,2.805     c1.012,3.201,2.879,4.532,6.386,4.537c17.727,0.02,35.454,0.01,53.182,0C78.735,92.251,79.559,92.139,80.387,92.078z"></path><path fill-rule="evenodd" clip-rule="evenodd" fill="none" d="M80.387,92.078c-0.828,0.061-1.651,0.173-2.476,0.173     c-17.728,0.01-35.455,0.02-53.182,0c-3.507-0.005-5.375-1.336-6.386-4.537c-0.278-0.881-0.311-1.866-0.311-2.805     c-0.016-22.844,0.041-45.687-0.059-68.529c-0.02-4.478,3.2-7.837,7.757-7.81c17.013,0.1,34.027,0.083,51.04,0.011     c4.504-0.019,7.661,3.184,7.652,7.522c-0.045,23.081-0.042,46.162,0.004,69.243C84.433,88.485,82.74,90.392,80.387,92.078z      M32.444,18.74c0,10.697,0,21.107,0,31.718c1.412-0.452,2.644-0.802,3.844-1.24c5.562-2.025,11.176-3.863,17.06-4.722     c2.511-0.366,4.985-0.577,6.925,1.92c0,1.074,0,2.257,0,3.44c0,9.627-0.01,19.255,0.011,28.882     c0.003,1.255,0.158,2.51,0.245,3.794c3.186,0,5.97,0,8.663,0c0.124-0.361,0.195-0.472,0.195-0.581     c0.025-12.002,0.116-24.003,0.03-36.003c-0.03-4.33-2.489-7.378-6.574-8.746c-3.706-1.24-7.513-1.052-11.257-0.336     c-3.202,0.612-6.337,1.575-9.958,2.5c0-7.046,0-13.75,0-20.626C38.425,18.74,35.619,18.74,32.444,18.74z M65.623,30.582     c3.146-3.142,5.435-7.192,7.487-11.811c-3.74,0-7.122,0-10.326,0c-2.23,4.056-4.333,7.876-6.497,11.811     C59.271,30.582,62.226,30.582,65.623,30.582z M41.491,73.112c-3.191-3.165-6.114-6.063-8.95-8.876c0,5.643,0,11.564,0,17.258     C35.535,78.69,38.54,75.876,41.491,73.112z"></path><path fill-rule="evenodd" clip-rule="evenodd" d="M32.444,18.74c3.174,0,5.981,0,9.184,0c0,6.876,0,13.58,0,20.626     c3.621-0.924,6.756-1.887,9.958-2.5c3.744-0.716,7.551-0.904,11.257,0.336c4.085,1.367,6.544,4.416,6.574,8.746     c0.086,12-0.005,24.001-0.03,36.003c0,0.109-0.071,0.22-0.195,0.581c-2.693,0-5.478,0-8.663,0     c-0.087-1.284-0.242-2.539-0.245-3.794c-0.021-9.627-0.011-19.255-0.011-28.882c0-1.183,0-2.366,0-3.44     c-1.939-2.497-4.414-2.286-6.925-1.92c-5.884,0.859-11.497,2.696-17.06,4.722c-1.2,0.438-2.432,0.788-3.844,1.24     C32.444,39.847,32.444,29.437,32.444,18.74z"></path><path fill-rule="evenodd" clip-rule="evenodd" d="M65.623,30.582c-3.397,0-6.353,0-9.336,0c2.164-3.935,4.267-7.755,6.497-11.811     c3.204,0,6.586,0,10.326,0C71.058,23.39,68.77,27.44,65.623,30.582z"></path><path fill-rule="evenodd" clip-rule="evenodd" d="M41.491,73.112c-2.951,2.764-5.956,5.578-8.95,8.382c0-5.693,0-11.615,0-17.258     C35.376,67.049,38.3,69.947,41.491,73.112z"></path></g></g></g></svg>